<svg width="34" height="34" viewBox="0 0 34 34" fill="none" xmlns="http://www.w3.org/2000/svg">
<path d="M17 2.72021C11.7388 2.72021 7.47998 6.97903 7.47998 12.2402C7.47998 16.5977 9.76132 21.2527 12.0022 24.864C14.2432 28.4754 16.4873 31.0478 16.4873 31.0478C16.5515 31.1214 16.6309 31.1803 16.7199 31.2204C16.8089 31.2606 16.9055 31.2812 17.0032 31.2807C17.1009 31.2801 17.1973 31.2586 17.2859 31.2175C17.3745 31.1764 17.4532 31.1167 17.5166 31.0425C17.5166 31.0425 19.7593 28.4209 21.999 24.7857C24.2387 21.1505 26.52 16.5019 26.52 12.2402C26.52 6.97903 22.2612 2.72021 17 2.72021ZM17 4.08021C21.5308 4.08021 25.16 7.7094 25.16 12.2402C25.16 16.0025 23.0212 20.5337 20.8409 24.0725C19.0709 26.9454 17.5988 28.7791 16.996 29.5125C16.39 28.7881 14.9229 26.9916 13.1577 24.1469C10.9786 20.6352 8.83998 16.1107 8.83998 12.2402C8.83998 7.7094 12.4692 4.08021 17 4.08021ZM17 7.48022C14.3851 7.48022 12.24 9.62531 12.24 12.2402C12.24 14.8551 14.3851 17.0002 17 17.0002C19.6149 17.0002 21.76 14.8551 21.76 12.2402C21.76 9.62531 19.6149 7.48022 17 7.48022ZM17 8.84021C18.8731 8.84021 20.4 10.3671 20.4 12.2402C20.4 14.1133 18.8731 15.6402 17 15.6402C15.1269 15.6402 13.6 14.1133 13.6 12.2402C13.6 10.3671 15.1269 8.84021 17 8.84021Z" fill="#606571"/>
</svg>
