<svg width="29" height="29" viewBox="0 0 29 29" fill="none" xmlns="http://www.w3.org/2000/svg">
<path d="M16.693 1.17818C16.5458 1.18951 16.4008 1.2099 16.258 1.25068L6.03553 4.15068C4.88686 4.47693 4.20491 5.68451 4.53116 6.83318L9.31616 23.6532C9.32522 23.7098 9.34335 23.7642 9.37053 23.8163L10.0593 26.2632C10.3855 27.4119 11.5931 28.0757 12.7418 27.7494L22.9643 24.8494C24.113 24.5232 24.7949 23.3156 24.4687 22.1669L23.798 19.8107C23.8071 19.6747 23.7686 19.5411 23.6893 19.4301L18.9405 2.73693C18.6958 1.87599 17.9686 1.28466 17.128 1.17818C16.9876 1.16006 16.8403 1.16685 16.693 1.17818ZM16.7837 2.32006C17.2572 2.28381 17.699 2.5874 17.8349 3.06318L22.4568 19.3757L10.2768 22.8194L5.65491 6.50693C5.50085 5.96091 5.81577 5.41037 6.36178 5.25631L16.5843 2.35631C16.6523 2.33591 16.7157 2.32459 16.7837 2.32006ZM22.1487 6.18068C21.981 6.20787 21.8337 6.30982 21.7454 6.45709C21.6593 6.60209 21.6389 6.78107 21.6955 6.94193L24.5955 17.1644C24.6862 17.4748 25.0101 17.6538 25.3205 17.5632C25.6309 17.4726 25.8099 17.1486 25.7193 16.8382L22.8193 6.61568C22.7536 6.35966 22.5225 6.18068 22.2574 6.18068C22.2393 6.18068 22.2212 6.18068 22.203 6.18068C22.1849 6.18068 22.1668 6.18068 22.1487 6.18068ZM25.4293 8.01131C25.2616 8.03849 25.1144 8.14045 25.026 8.28771C24.9399 8.43271 24.9195 8.6117 24.9762 8.77256L26.4262 13.8838C26.5168 14.1942 26.8408 14.3732 27.1512 14.2826C27.4615 14.1919 27.6405 13.8679 27.5499 13.5576L26.0999 8.44631C26.0342 8.19029 25.8031 8.01131 25.538 8.01131C25.5199 8.01131 25.5018 8.01131 25.4837 8.01131C25.4655 8.01131 25.4474 8.01131 25.4293 8.01131ZM3.78803 11.4007C3.76991 11.4052 3.75178 11.412 3.73366 11.4188C3.57053 11.4483 3.42553 11.5457 3.33944 11.6884C3.25335 11.8311 3.23069 12.0033 3.28053 12.1619L6.18053 22.3844C6.27116 22.6948 6.59514 22.8738 6.90553 22.7832C7.21592 22.6926 7.39491 22.3686 7.30428 22.0582L4.40428 11.8357C4.33858 11.5797 4.10749 11.4007 3.84241 11.4007C3.82428 11.4007 3.80616 11.4007 3.78803 11.4007ZM1.95741 14.6813C1.93928 14.6858 1.92116 14.6926 1.90303 14.6994C1.73991 14.7289 1.59491 14.8263 1.50882 14.969C1.42272 15.1118 1.40007 15.284 1.44991 15.4426L2.89991 20.5538C2.99053 20.8642 3.31452 21.0432 3.62491 20.9526C3.9353 20.8619 4.11428 20.5379 4.02366 20.2276L2.57366 15.1163C2.50796 14.8603 2.27686 14.6813 2.01178 14.6813C1.99366 14.6813 1.97553 14.6813 1.95741 14.6813ZM22.783 20.4994L23.3449 22.4932C23.499 23.0392 23.184 23.5897 22.638 23.7438L12.4155 26.6438C11.8695 26.7979 11.319 26.4829 11.1649 25.9369L10.603 23.9432L22.783 20.4994ZM17.0555 22.9101C17.0034 22.9146 16.9445 22.9123 16.8924 22.9282C16.4687 23.0483 16.2286 23.5014 16.3487 23.9251C16.4687 24.3487 16.9037 24.5889 17.3274 24.4688C17.7511 24.3487 17.9912 23.9137 17.8712 23.4901C17.7669 23.1185 17.4248 22.8829 17.0555 22.9101Z" fill="#606571"/>
</svg>
